<?xml version="1.0" encoding="UTF-8" standalone="no"?>
<!-- Generator: Adobe Illustrator 27.0.1, SVG Export Plug-In . SVG Version: 6.00 Build 0)  -->

<svg
   version="1.1"
   id="Capa_1"
   x="0px"
   y="0px"
   viewBox="0 0 89639.453 87755.305"
   xml:space="preserve"
   sodipodi:docname="icono-home.svg"
   width="89639.453"
   height="87755.305"
   xmlns:inkscape="http://www.inkscape.org/namespaces/inkscape"
   xmlns:sodipodi="http://sodipodi.sourceforge.net/DTD/sodipodi-0.dtd"
   xmlns="http://www.w3.org/2000/svg"
   xmlns:svg="http://www.w3.org/2000/svg"><defs
   id="defs1" /><sodipodi:namedview
   id="namedview1"
   pagecolor="#ffffff"
   bordercolor="#000000"
   borderopacity="0.25"
   inkscape:showpageshadow="2"
   inkscape:pageopacity="0.0"
   inkscape:pagecheckerboard="0"
   inkscape:deskcolor="#d1d1d1" />
<style
   type="text/css"
   id="style1">
	.st0{fill:#83B62C;}
</style>

<g
   style="fill:none;stroke:#8bc034"
   id="g2"
   transform="matrix(1669.3308,0,0,1802.6242,-7864.762,-13198.4)"><g
     id="SVGRepo_bgCarrier-5"
     stroke-width="0" /><g
     id="SVGRepo_tracerCarrier-1"
     stroke-linecap="round"
     stroke-linejoin="round" /><g
     id="SVGRepo_iconCarrier-7"><path
       d="m 56.87,25.981 -6.6,-4.95 -3,-2.25 -11.7,-8.78 c -1.1277,-0.83773 -2.4952,-1.29006 -3.9,-1.29006 -1.4048,0 -2.7723,0.45233 -3.9,1.29006 l -6.1,4.58 v -0.21 C 21.6684,13.8411 21.4572,13.3333 21.0825,12.9586 20.7077,12.5838 20.1999,12.3726 19.67,12.371 h -7.2 c -0.5304,0 -1.0391,0.2107 -1.4142,0.5858 -0.3751,0.3751 -0.5858,0.8838 -0.5858,1.4142 v 8.79 l -4.02998,3.13 c -0.20775,0.1614 -0.38164,0.3621 -0.51169,0.5907 -0.13006,0.2286 -0.21374,0.4807 -0.24625,0.7417 -0.03251,0.261 -0.0132,0.5259 0.05679,0.7794 0.07,0.2536 0.18932,0.4908 0.35114,0.6982 0.18599,0.2417 0.42545,0.437 0.69959,0.5706 0.27413,0.1336 0.57545,0.2018 0.8804,0.1994 0.44211,-10e-5 0.87152,-0.1479 1.22,-0.42 l 1.58,-1.22 v 20.05 c 0.0016,1.7234 0.6869,3.3758 1.9056,4.5945 1.2186,1.2186 2.871,1.9039 4.5944,1.9055 h 8.63 c 0.3594,-2e-4 0.7121,-0.0979 1.0203,-0.2829 0.3082,-0.1849 0.5604,-0.45 0.7297,-0.7671 0.1642,-0.2897 0.2503,-0.617 0.25,-0.95 0.0017,-0.0701 -0.0017,-0.1403 -0.01,-0.21 v -5.72 c 0.0016,-1.0807 0.4323,-2.1165 1.1974,-2.8797 0.7651,-0.7632 1.8019,-1.1914 2.8826,-1.1903 1.0791,0.0011 2.1137,0.4302 2.8768,1.1932 0.763,0.7631 1.1921,1.7977 1.1932,2.8768 v 5.93 c -3e-4,0.333 0.0859,0.6603 0.25,0.95 0.1724,0.3167 0.4267,0.5812 0.7363,0.7659 0.3096,0.1847 0.6632,0.2828 1.0237,0.2841 h 8.62 c 1.7229,-0.0034 3.3742,-0.6893 4.5924,-1.9076 1.2183,-1.2182 1.9042,-2.8695 1.9076,-4.5924 v -20.3 l 1.6,1.2 c 0.3429,0.2588 0.7605,0.3991 1.19,0.4 0.3118,-8e-4 0.6192,-0.0734 0.8984,-0.2121 0.2792,-0.1388 0.5226,-0.3399 0.7116,-0.5879 0.3183,-0.4243 0.4549,-0.9577 0.3799,-1.4828 -0.075,-0.5251 -0.3555,-0.9989 -0.7799,-1.3172 z"
       fill="#88b440"
       data-darkreader-inline-fill=""
       id="path1" /></g></g></svg>
