<?xml version="1.0" encoding="UTF-8" standalone="no"?>
<!-- Uploaded to: SVG Repo, www.svgrepo.com, Generator: SVG Repo Mixer Tools -->

<svg
   width="800px"
   height="800px"
   viewBox="0 0 48 48"
   fill="none"
   version="1.1"
   id="svg5"
   sodipodi:docname="icono_csw.svg"
   inkscape:version="1.3 (0e150ed6c4, 2023-07-21)"
   xmlns:inkscape="http://www.inkscape.org/namespaces/inkscape"
   xmlns:sodipodi="http://sodipodi.sourceforge.net/DTD/sodipodi-0.dtd"
   xmlns="http://www.w3.org/2000/svg"
   xmlns:svg="http://www.w3.org/2000/svg">
  <defs
     id="defs5" />
  <sodipodi:namedview
     id="namedview5"
     pagecolor="#ffffff"
     bordercolor="#666666"
     borderopacity="1.0"
     inkscape:showpageshadow="2"
     inkscape:pageopacity="0.0"
     inkscape:pagecheckerboard="0"
     inkscape:deskcolor="#d1d1d1"
     inkscape:zoom="0.738125"
     inkscape:cx="388.14564"
     inkscape:cy="338.01863"
     inkscape:window-width="1350"
     inkscape:window-height="1237"
     inkscape:window-x="808"
     inkscape:window-y="87"
     inkscape:window-maximized="0"
     inkscape:current-layer="svg5" />
  <path
     d="M4 24H44"
     stroke="#000000"
     stroke-width="4"
     stroke-linecap="round"
     stroke-linejoin="round"
     id="path2"
     style="fill:none;fill-opacity:1;stroke:#88b440;stroke-opacity:1" />
  <path
     fill-rule="evenodd"
     clip-rule="evenodd"
     d="M24 44C28.4183 44 32 35.0457 32 24C32 12.9543 28.4183 4 24 4C19.5817 4 16 12.9543 16 24C16 35.0457 19.5817 44 24 44Z"
     stroke="#000000"
     stroke-width="4"
     stroke-linecap="round"
     stroke-linejoin="round"
     id="path3"
     style="fill:none;fill-opacity:1;stroke:#88b440;stroke-opacity:1" />
  <path
     d="M9.85791 10.1421C13.4772 13.7614 18.4772 16 24 16V16C29.5229 16 34.5229 13.7614 38.1422 10.1421"
     stroke="#000000"
     stroke-width="4"
     stroke-linecap="round"
     stroke-linejoin="round"
     id="path4"
     style="fill:none;fill-opacity:1;stroke:#88b440;stroke-opacity:1" />
  <path
     d="M38.1422 37.8579C34.5229 34.2386 29.5229 32 24 32C18.4772 32 13.4772 34.2386 9.85791 37.8579"
     stroke="#000000"
     stroke-width="4"
     stroke-linecap="round"
     stroke-linejoin="round"
     id="path5"
     style="fill:none;fill-opacity:1;stroke:#88b440;stroke-opacity:1" />
  <path
     fill-rule="evenodd"
     clip-rule="evenodd"
     d="M24 44C35.0457 44 44 35.0457 44 24C44 12.9543 35.0457 4 24 4C12.9543 4 4 12.9543 4 24C4 35.0457 12.9543 44 24 44Z"
     stroke="#000000"
     stroke-width="4"
     stroke-linecap="round"
     stroke-linejoin="round"
     id="path1"
     style="fill:none;fill-opacity:1;stroke:#8bc034;stroke-opacity:1" />
</svg>
